<?xml version="1.0" encoding="utf-8"?>
<!-- Generator: Adobe Illustrator 24.3.0, SVG Export Plug-In . SVG Version: 6.00 Build 0)  -->
<svg version="1.1" id="_x33_5" xmlns="http://www.w3.org/2000/svg" xmlns:xlink="http://www.w3.org/1999/xlink" x="0px" y="0px"
	 viewBox="0 0 143.5 143" style="enable-background:new 0 0 143.5 143;" xml:space="preserve">
<style type="text/css">
	.st0{fill:#ACA79E;}
	.st1{fill:none;stroke:#ACA79E;stroke-miterlimit:10;}
	.st2{fill:#FFFFFF;}
</style>
<g>
	<circle class="st0" cx="71.7" cy="71.5" r="60.9"/>
	<circle class="st1" cx="71.7" cy="71.5" r="69.2"/>
	<g>
		<g>
			<g>
				<path class="st2" d="M73.8,109c-12.2,0-23.7-6-30.7-16c-0.1-0.2-0.2-0.4-0.1-0.6c0.1-0.2,0.3-0.4,0.5-0.4c1.8-0.2,3.8-0.5,6-0.9
					c1.4-0.3,2.9-0.6,4.7-1.1c10.7-2.8,24.3-7.8,38.1-14.2c1.9-0.9,3.9-1.8,5.7-2.7c0.3-0.2,0.7,0,0.9,0.3l2.6,5.1
					c0.3,0.6,1.2,0.6,1.5,0l6.2-12.5c0.1-0.2,0.1-0.5,0-0.7c-0.1-0.2-0.3-0.4-0.6-0.4l-13.7-2.5c-0.3-0.1-0.7,0.1-0.8,0.4
					c-0.1,0.2-0.2,0.5,0,0.8l2.7,5.3c0.1,0.2,0.1,0.3,0,0.5c-0.1,0.2-0.2,0.3-0.3,0.4c-1.8,0.9-3.7,1.8-5.6,2.7
					C77.9,78.2,65.2,83,55,85.8c-3,0.8-5.6,1.4-7.7,1.8c-2.5,0.5-4.7,0.7-6.5,0.7c-0.2,0-0.5-0.1-0.6-0.4c-0.4-0.8-0.8-1.7-1.2-2.7
					c-0.1-0.2-0.1-0.5,0.1-0.7c1.2-1.4,2.8-2.9,4.8-4.5c-0.4-1.3-0.7-2.7-1-4.2c-1.8,1.4-3.3,2.7-4.6,3.9c-0.2,0.2-0.4,0.2-0.6,0.2
					c-0.2-0.1-0.4-0.3-0.4-0.5c-0.6-2.6-0.8-5.3-0.8-7.9C36.3,50.8,53.1,34,73.8,34c20.7,0,37.5,16.8,37.5,37.5
					C111.3,92.2,94.5,109,73.8,109z M44.9,93.2c6.8,9.1,17.6,14.5,29,14.5c20,0,36.2-16.2,36.2-36.2c0-1.3-0.1-2.6-0.2-3.8L104.2,79
					c-0.4,0.7-1.1,1.2-1.9,1.2c-0.8,0-1.5-0.4-1.9-1.2l-2.3-4.5c-1.7,0.8-3.4,1.6-5.2,2.5C79,83.4,65.4,88.5,54.6,91.2
					c-1.8,0.5-3.4,0.8-4.8,1.1C48,92.7,46.4,93,44.9,93.2z M40.3,85.1c0.3,0.7,0.6,1.3,0.8,1.9c1.6,0,3.6-0.3,5.9-0.7
					c2.1-0.4,4.7-1,7.6-1.8c10.1-2.8,22.8-7.6,35.6-13.5c1.7-0.8,3.4-1.6,5-2.4L92.9,64c-0.3-0.7-0.3-1.4,0.1-2
					c0.5-0.7,1.3-1.1,2.2-1l13.7,2.5c0.1,0,0.2,0,0.2,0.1C105.5,47.4,91,35.3,73.8,35.3c-19.9,0-36.2,16.2-36.2,36.2
					c0,2.2,0.2,4.4,0.6,6.5c1.3-1.2,2.9-2.5,4.6-3.8c0.2-0.1,0.4-0.2,0.6-0.1c0.2,0.1,0.4,0.3,0.4,0.5c0.3,1.9,0.8,3.7,1.3,5.5
					c0.1,0.3,0,0.5-0.2,0.7C43,82.3,41.5,83.8,40.3,85.1z"/>
			</g>
			<g>
				<g>
					<path class="st2" d="M73.8,109c-7.5,0-14.4-7.2-18.1-18.7c-0.1-0.2,0-0.4,0-0.5c0.1-0.2,0.2-0.3,0.4-0.3
						c10.4-2.9,23.3-7.7,36.3-13.8l0.5-0.2c0.3-0.1,0.5-0.2,0.8-0.4c0.2-0.1,0.5-0.1,0.6,0.1c0.2,0.1,0.3,0.3,0.3,0.6
						C93.4,94.7,84.5,109,73.8,109z M57.1,90.6c3.6,10.6,9.9,17.1,16.7,17.1c9.8,0,18-13.2,19.4-30.9L93,76.9
						C80.2,82.8,67.5,87.7,57.1,90.6z M55,85.8c-0.1,0-0.2,0-0.3-0.1c-0.2-0.1-0.3-0.2-0.3-0.4c-1-4.4-1.5-9-1.5-13.8
						c0-20.7,9.4-37.5,20.9-37.5c9.6,0,18,11.6,20.3,28.2c0,0.1,0,0.3-0.1,0.4c-0.1,0.2-0.1,0.5,0,0.8l0.2,0.5
						c0,0.1,0.1,0.1,0.1,0.2c0.2,2,0.3,4,0.4,5.9c0,0.3-0.1,0.5-0.4,0.6c-0.8,0.4-1.6,0.7-2.3,1.1l-1.2,0.6
						c-12.8,5.9-25.5,10.7-35.7,13.5C55.1,85.8,55,85.8,55,85.8z M73.8,35.3c-10.8,0-19.6,16.2-19.6,36.2c0,4.4,0.4,8.7,1.3,12.8
						c10.1-2.8,22.4-7.5,34.8-13.3l1.2-0.6c0.7-0.3,1.3-0.6,2-0.9c0-1.7-0.2-3.5-0.3-5.2L92.9,64c-0.3-0.6-0.3-1.2-0.1-1.7
						C90.5,46.4,82.7,35.3,73.8,35.3z"/>
				</g>
			</g>
			<g>
				<path class="st2" d="M73.8,92.4c-5.7,0-11.2-0.7-16.3-2.1c-0.3-0.1-0.5-0.3-0.5-0.6c0-0.3,0.2-0.5,0.5-0.6
					c10.1-2.9,22.5-7.6,34.9-13.4c1.9-0.9,3.9-1.8,5.7-2.7c0.3-0.2,0.7,0,0.9,0.3l2.6,5.1c0.3,0.6,1.2,0.6,1.5,0l5.9-12
					c0.1-0.2,0.3-0.4,0.6-0.4c0.3,0,0.5,0.2,0.6,0.4c0.8,1.7,1.1,3.4,1.1,5.1C111.3,83,94.5,92.4,73.8,92.4z M60.2,89.7
					c4.3,1,8.9,1.4,13.6,1.4c20,0,36.2-8.8,36.2-19.6c0-1.1-0.2-2.2-0.5-3.2L104.2,79c-0.4,0.7-1.1,1.2-1.9,1.2
					c-0.8,0-1.5-0.4-1.9-1.2l-2.3-4.5c-1.7,0.8-3.4,1.6-5.2,2.5C81.4,82.3,69.9,86.8,60.2,89.7z M49.1,87.2c-0.1,0-0.2,0-0.3-0.1
					c-2.7-1.3-5-2.9-6.9-4.6c-0.1-0.1-0.2-0.3-0.2-0.5c0-0.2,0.1-0.4,0.2-0.5c0.5-0.5,1.2-1,1.8-1.6c-0.4-1.3-0.7-2.7-1-4.2
					c-1.1,0.9-2.2,1.8-3.4,2.8c-0.1,0.1-0.3,0.2-0.5,0.2c-0.2,0-0.4-0.1-0.5-0.3c-1.4-2.3-2.1-4.6-2.1-7c0-11.5,16.8-20.9,37.5-20.9
					c15.3,0,28.9,5.1,34.7,13c0.2,0.2,0.2,0.5,0,0.7c-0.1,0.2-0.4,0.3-0.7,0.3l-13-2.4c-0.3-0.1-0.7,0.1-0.8,0.4
					c-0.1,0.2-0.2,0.5,0,0.8l2.7,5.3c0.1,0.2,0.1,0.3,0,0.5c-0.1,0.2-0.2,0.3-0.3,0.4c-1.8,0.9-3.7,1.8-5.6,2.7
					C77.9,78.2,65.2,83,55,85.8c-2,0.5-3.9,1-5.7,1.4C49.2,87.2,49.2,87.2,49.1,87.2z M43.4,82.1c1.6,1.4,3.6,2.7,5.8,3.8
					c1.7-0.4,3.5-0.8,5.4-1.3c10.1-2.8,22.8-7.6,35.6-13.5c1.7-0.8,3.4-1.6,5-2.4L92.9,64c-0.3-0.7-0.3-1.4,0.1-2
					c0.5-0.7,1.3-1.1,2.2-1l11.2,2.1c-6-6.8-18.6-11.1-32.6-11.1c-19.9,0-36.2,8.8-36.2,19.6c0,1.9,0.5,3.8,1.5,5.7
					c1.2-1.1,2.4-2,3.7-3c0.2-0.1,0.4-0.2,0.6-0.1c0.2,0.1,0.4,0.3,0.4,0.5c0.3,1.9,0.8,3.7,1.3,5.5c0.1,0.3,0,0.5-0.2,0.7
					C44.4,81.2,43.9,81.7,43.4,82.1z"/>
			</g>
			<g>
				<path class="st2" d="M110.7,72.2h-3.5c-0.4,0-0.7-0.3-0.7-0.7c0-0.4,0.3-0.7,0.7-0.7h3.5c0.4,0,0.7,0.3,0.7,0.7
					C111.3,71.9,111,72.2,110.7,72.2z M90.9,72.2H37c-0.4,0-0.7-0.3-0.7-0.7c0-0.4,0.3-0.7,0.7-0.7h53.9c0.4,0,0.7,0.3,0.7,0.7
					C91.5,71.9,91.2,72.2,90.9,72.2z"/>
			</g>
			<g>
				<path class="st2" d="M73.8,109c-0.4,0-0.7-0.3-0.7-0.7v-24c0-0.4,0.3-0.7,0.7-0.7c0.4,0,0.7,0.3,0.7,0.7v24
					C74.5,108.7,74.2,109,73.8,109z M73.8,79.4c-0.4,0-0.7-0.3-0.7-0.7V34.7c0-0.4,0.3-0.7,0.7-0.7c0.4,0,0.7,0.3,0.7,0.7v44.1
					C74.5,79.1,74.2,79.4,73.8,79.4z"/>
			</g>
			<g>
				<path class="st2" d="M41.4,93.5h-0.8c-4.2,0-6.9-1.2-8-3.7c-1.8-3.9,1.7-7.8,2.9-9.1c1.7-1.9,4.2-4.1,7.3-6.5
					c0.2-0.1,0.4-0.2,0.6-0.1c0.2,0.1,0.4,0.3,0.4,0.5c0.3,1.9,0.8,3.7,1.3,5.5c0.1,0.3,0,0.5-0.2,0.7c-3.5,2.8-5,4.6-5.7,5.6
					c-0.1,0.2-0.1,0.3,0,0.4c0,0.1,0.1,0.2,0.3,0.2c0.3,0,0.7,0,1.1,0c1.7,0,3.8-0.2,6.3-0.7c2.1-0.4,4.7-1,7.6-1.8
					c10.1-2.8,22.8-7.6,35.6-13.5c1.7-0.8,3.4-1.6,5-2.4L92.9,64c-0.3-0.7-0.3-1.4,0.1-2c0.5-0.7,1.3-1.1,2.2-1l13.7,2.5
					c0.7,0.1,1.2,0.5,1.5,1.1c0.3,0.6,0.3,1.3,0,1.9L104.2,79c-0.4,0.7-1.1,1.2-1.9,1.2c-0.8,0-1.5-0.4-1.9-1.2l-2.3-4.5
					c-1.7,0.8-3.4,1.6-5.2,2.5C79,83.4,65.4,88.5,54.6,91.2c-1.8,0.5-3.4,0.8-4.8,1.1C46.5,93,43.7,93.4,41.4,93.5
					C41.4,93.5,41.4,93.5,41.4,93.5z M42.8,75.9c-2.7,2.1-4.8,4-6.3,5.7c-1,1.1-4.1,4.6-2.7,7.7c0.9,1.9,3.2,2.9,6.8,2.9h0.8
					c2.2-0.1,4.9-0.4,8.2-1.1c1.4-0.3,2.9-0.6,4.7-1.1c10.7-2.8,24.3-7.8,38.1-14.2c1.9-0.9,3.9-1.8,5.7-2.7c0.3-0.2,0.7,0,0.9,0.3
					l2.6,5.1c0.3,0.6,1.2,0.6,1.5,0l6.2-12.5c0.1-0.2,0.1-0.5,0-0.7c-0.1-0.2-0.3-0.4-0.6-0.4l-13.7-2.5c-0.3-0.1-0.7,0.1-0.8,0.4
					c-0.1,0.2-0.2,0.5,0,0.8l2.7,5.3c0.1,0.2,0.1,0.3,0,0.5c-0.1,0.2-0.2,0.3-0.3,0.4c-1.8,0.9-3.7,1.8-5.6,2.7
					C77.9,78.2,65.2,83,55,85.8c-3,0.8-5.6,1.4-7.7,1.8c-2.6,0.5-4.8,0.7-6.6,0.7c-0.5,0-0.9,0-1.2,0c-0.6-0.1-1.1-0.4-1.4-1
					c-0.2-0.5-0.2-1.2,0.2-1.7c0.7-1,2.3-2.8,5.6-5.6C43.4,78.7,43.1,77.3,42.8,75.9z"/>
			</g>
		</g>
	</g>
</g>
</svg>
