<?xml version="1.0" encoding="utf-8"?>
<!-- Generator: Adobe Illustrator 24.3.0, SVG Export Plug-In . SVG Version: 6.00 Build 0)  -->
<svg version="1.1" id="_x33_5" xmlns="http://www.w3.org/2000/svg" xmlns:xlink="http://www.w3.org/1999/xlink" x="0px" y="0px"
	 viewBox="0 0 143.5 143" style="enable-background:new 0 0 143.5 143;" xml:space="preserve">
<style type="text/css">
	.st0{fill:#ACA79E;}
	.st1{fill:none;stroke:#ACA79E;stroke-miterlimit:10;}
	.st2{fill:#FFFFFF;}
</style>
<g>
	<circle class="st0" cx="71.7" cy="71.5" r="60.9"/>
	<circle class="st1" cx="71.7" cy="71.5" r="69.2"/>
	<g>
		<g>
			<g>
				<path class="st2" d="M65,41.9c-0.1,0-0.3-0.1-0.4-0.1c-0.2-0.1-0.2-0.3-0.2-0.5v-2.7c0-0.2,0.1-0.4,0.3-0.5
					c0.2-0.1,0.4-0.2,0.6-0.1C65.5,38,65.8,38,66,38h11.4c0.2,0,0.5,0,0.8-0.1c0.2-0.1,0.4,0,0.6,0.1c0.2,0.1,0.3,0.3,0.3,0.5v2.7
					c0,0.2-0.1,0.4-0.2,0.5c-0.1,0.1-0.3,0.2-0.5,0.1c-4.3-0.9-8.9-0.9-13.1,0C65.1,41.9,65.1,41.9,65,41.9z M71.7,39.9
					c2,0,4.1,0.2,6,0.5v-1.1c-0.1,0-0.2,0-0.3,0H66c-0.1,0-0.2,0-0.4,0v1.1C67.7,40.1,69.7,39.9,71.7,39.9z"/>
			</g>
			<g>
				<path class="st2" d="M45.5,53.4c-0.2,0-0.3-0.1-0.5-0.2l-2.1-2.1c-0.5-0.5-0.8-1.2-0.8-2c0-0.7,0.3-1.4,0.8-1.9l2.3-2.3
					c1.1-1,2.8-1,3.9,0l2.3,2.2c0.1,0.1,0.2,0.3,0.2,0.5c0,0.2-0.1,0.4-0.3,0.5c-1.9,1.5-3.7,3.2-5.3,5
					C45.9,53.3,45.7,53.4,45.5,53.4C45.5,53.4,45.5,53.4,45.5,53.4z M47.2,45.4c-0.4,0-0.8,0.2-1,0.4l-2.3,2.3
					c-0.3,0.3-0.4,0.6-0.4,1c0,0.4,0.2,0.8,0.4,1l1.6,1.6c1.4-1.5,2.9-3,4.5-4.2l-1.7-1.7C47.9,45.5,47.6,45.4,47.2,45.4z"/>
			</g>
			<g>
				<path class="st2" d="M71.7,110.1c-19.3,0-35.1-15.7-35.1-35.1c0-19.3,15.7-35.1,35.1-35.1c19.3,0,35.1,15.7,35.1,35.1
					C106.8,94.4,91.1,110.1,71.7,110.1z M71.7,41.2C53.1,41.2,38,56.4,38,75c0,18.6,15.1,33.8,33.8,33.8c18.6,0,33.8-15.1,33.8-33.8
					C105.5,56.4,90.3,41.2,71.7,41.2z"/>
			</g>
			<g>
				<path class="st2" d="M71.7,105.2c-16.6,0-30.1-13.5-30.1-30.1c0-16.6,13.5-30.2,30.1-30.2c16.6,0,30.1,13.5,30.1,30.2
					C101.9,91.6,88.4,105.2,71.7,105.2z M71.7,46.2c-15.9,0-28.8,12.9-28.8,28.9c0,15.9,12.9,28.8,28.8,28.8
					c15.9,0,28.8-12.9,28.8-28.8C100.6,59.1,87.6,46.2,71.7,46.2z"/>
			</g>
			<g>
				<path class="st2" d="M69,73.7c-0.1,0-0.2,0-0.2,0c-0.3-0.1-0.4-0.4-0.4-0.7l2.2-16c0.1-0.6,0.6-1,1.2-1c0.6,0,1,0.4,1.1,1
					l2.2,16c0,0.3-0.1,0.6-0.4,0.7c-0.3,0.1-0.6,0-0.8-0.2c-0.5-0.7-1.3-1.1-2.2-1.1c-0.9,0-1.7,0.4-2.2,1.1
					C69.4,73.6,69.2,73.7,69,73.7z M71.7,71c0.7,0,1.3,0.2,1.9,0.5l-1.9-13.3l-1.9,13.3C70.4,71.2,71.1,71,71.7,71z"/>
			</g>
			<g>
				<path class="st2" d="M71.7,79c-2.2,0-4-1.8-4-4c0-2.2,1.8-4,4-4c2.2,0,4,1.8,4,4C75.7,77.2,73.9,79,71.7,79z M71.7,72.3
					c-1.5,0-2.7,1.2-2.7,2.7c0,1.5,1.2,2.7,2.7,2.7c1.5,0,2.7-1.2,2.7-2.7C74.4,73.5,73.2,72.3,71.7,72.3z"/>
			</g>
			<g>
				<path class="st2" d="M77.4,39.3H66c-2.2,0-3.9-1.8-3.9-3.9v-0.6c0-2.2,1.8-3.9,3.9-3.9h11.4c2.2,0,3.9,1.8,3.9,3.9v0.6
					C81.3,37.6,79.6,39.3,77.4,39.3z M66,32.2c-1.4,0-2.6,1.2-2.6,2.6v0.6c0,1.4,1.2,2.6,2.6,2.6h11.4c1.4,0,2.6-1.2,2.6-2.6v-0.6
					c0-1.4-1.2-2.6-2.6-2.6H66z"/>
			</g>
			<g>
				<path class="st2" d="M71.7,51.2c-0.4,0-0.7-0.3-0.7-0.7v-2.4c0-0.4,0.3-0.7,0.7-0.7c0.4,0,0.7,0.3,0.7,0.7v2.4
					C72.4,50.9,72.1,51.2,71.7,51.2z"/>
			</g>
			<g>
				<path class="st2" d="M83.9,54.5c-0.1,0-0.2,0-0.3-0.1c-0.3-0.2-0.4-0.6-0.2-0.9l1.2-2.1c0.2-0.3,0.6-0.4,0.9-0.2
					c0.3,0.2,0.4,0.6,0.2,0.9l-1.2,2.1C84.4,54.4,84.2,54.5,83.9,54.5z"/>
			</g>
			<g>
				<path class="st2" d="M92.9,63.5c-0.2,0-0.4-0.1-0.6-0.3c-0.2-0.3-0.1-0.7,0.2-0.9l2.1-1.2c0.3-0.2,0.7-0.1,0.9,0.2
					c0.2,0.3,0.1,0.7-0.2,0.9l-2.1,1.2C93.1,63.4,93,63.5,92.9,63.5z"/>
			</g>
			<g>
				<path class="st2" d="M98.5,75.7h-2.4c-0.4,0-0.7-0.3-0.7-0.7s0.3-0.7,0.7-0.7h2.4c0.4,0,0.7,0.3,0.7,0.7S98.9,75.7,98.5,75.7z"
					/>
			</g>
			<g>
				<path class="st2" d="M94.9,89.1c-0.1,0-0.2,0-0.3-0.1l-2.1-1.2c-0.3-0.2-0.4-0.6-0.2-0.9c0.2-0.3,0.6-0.4,0.9-0.2l2.1,1.2
					c0.3,0.2,0.4,0.6,0.2,0.9C95.4,88.9,95.2,89.1,94.9,89.1z"/>
			</g>
			<g>
				<path class="st2" d="M85.1,98.9c-0.2,0-0.4-0.1-0.6-0.3l-1.2-2c-0.2-0.3-0.1-0.7,0.2-0.9c0.3-0.2,0.7-0.1,0.9,0.2l1.2,2
					c0.2,0.3,0.1,0.7-0.2,0.9C85.4,98.8,85.2,98.9,85.1,98.9z"/>
			</g>
			<g>
				<path class="st2" d="M71.7,102.5c-0.4,0-0.7-0.3-0.7-0.7v-2.4c0-0.4,0.3-0.7,0.7-0.7c0.4,0,0.7,0.3,0.7,0.7v2.4
					C72.4,102.2,72.1,102.5,71.7,102.5z"/>
			</g>
			<g>
				<path class="st2" d="M58.3,98.9c-0.1,0-0.2,0-0.3-0.1c-0.3-0.2-0.4-0.6-0.2-0.9l1.2-2c0.2-0.3,0.6-0.4,0.9-0.2
					c0.3,0.2,0.4,0.6,0.2,0.9l-1.2,2C58.8,98.7,58.6,98.9,58.3,98.9z"/>
			</g>
			<g>
				<path class="st2" d="M48.5,89.1c-0.2,0-0.4-0.1-0.6-0.3c-0.2-0.3-0.1-0.7,0.2-0.9l2.1-1.2c0.3-0.2,0.7-0.1,0.9,0.2
					c0.2,0.3,0.1,0.7-0.2,0.9L48.8,89C48.7,89,48.6,89.1,48.5,89.1z"/>
			</g>
			<g>
				<path class="st2" d="M47.3,75.7h-2.4c-0.4,0-0.7-0.3-0.7-0.7s0.3-0.7,0.7-0.7h2.4c0.4,0,0.7,0.3,0.7,0.7S47.7,75.7,47.3,75.7z"
					/>
			</g>
			<g>
				<path class="st2" d="M50.6,63.5c-0.1,0-0.2,0-0.3-0.1l-2.1-1.2c-0.3-0.2-0.4-0.6-0.2-0.9c0.2-0.3,0.6-0.4,0.9-0.2l2.1,1.2
					c0.3,0.2,0.4,0.6,0.2,0.9C51,63.3,50.8,63.5,50.6,63.5z"/>
			</g>
			<g>
				<path class="st2" d="M59.5,54.5c-0.2,0-0.4-0.1-0.6-0.3l-1.2-2.1c-0.2-0.3-0.1-0.7,0.2-0.9c0.3-0.2,0.7-0.1,0.9,0.2l1.2,2.1
					c0.2,0.3,0.1,0.7-0.2,0.9C59.7,54.5,59.6,54.5,59.5,54.5z"/>
			</g>
		</g>
	</g>
</g>
</svg>
