<?xml version="1.0" encoding="utf-8"?>
<!-- Generator: Adobe Illustrator 23.0.6, SVG Export Plug-In . SVG Version: 6.00 Build 0)  -->
<svg version="1.1" id="Capa_1" xmlns="http://www.w3.org/2000/svg" xmlns:xlink="http://www.w3.org/1999/xlink" x="0px" y="0px"
	 viewBox="0 0 82.5 82.6" style="enable-background:new 0 0 82.5 82.6;" xml:space="preserve">
<g id="oBfJsz_1_">
	<g>
		<path d="M41.1,82.6C18.1,82.4-0.2,63.9,0,40.8C0.2,18.2,18.7-0.3,41.8,0c22.9,0.3,39.9,18.7,40.7,39.4c0.4,11.7-3.3,22-11.5,30.5
			C62.5,78.8,51.7,82.5,41.1,82.6z M41.3,76.1c19.4,0,35-15.9,34.9-35.2C76,22,60.5,6.3,41,6.4C21.9,6.5,6.1,22.2,6.4,41.8
			C6.7,60.7,22.1,76.1,41.3,76.1z"/>
	</g>
</g>
<g>
	<path d="M41.6,41.3c0,6.6,0,13.2,0,19.8c0,0.2,0,0.5,0,0.7c-0.1,0.2-0.2,0.6-0.3,0.6c-0.2,0.1-0.6,0-0.8-0.2
		c-1.3-1.1-2.5-2.2-3.7-3.3c-3.4-3-6.8-6.1-10.2-9.1c-0.5-0.4-1-0.6-1.6-0.6c-1.9,0-3.9,0-5.8,0c-0.8,0-1-0.3-1-1
		c0-4.6,0-9.2,0-13.8c0-0.8,0.3-1,1-1c2,0,3.9,0,5.9,0c0.5,0,1.1-0.2,1.4-0.6c4.6-4.1,9.2-8.2,13.8-12.3c0.3-0.2,0.7-0.3,1-0.5
		c0.1,0.4,0.3,0.8,0.3,1.1C41.6,27.9,41.6,34.6,41.6,41.3z"/>
	<path d="M64.3,41.6c-0.2,7-2.2,13.3-6.6,18.7c-0.2,0.2-0.3,0.4-0.5,0.6c-0.8,1-1.7,1.1-2.5,0.5c-0.8-0.7-1-2-0.3-2.9
		c0.8-1,1.6-2,2.3-3.1c5.9-9.3,5.1-21.8-2-30.3c-0.6-0.7-0.9-1.4-0.6-2.3c0.2-0.7,0.6-1.2,1.4-1.3c0.7-0.1,1.2,0.2,1.7,0.7
		c3.4,3.9,5.5,8.4,6.4,13.4C64,37.6,64.1,39.6,64.3,41.6z"/>
	<path d="M57.3,41.4c-0.1,5.2-1.5,9.7-4.6,13.6c-0.1,0.2-0.3,0.3-0.4,0.5c-0.8,0.9-1.6,1.1-2.4,0.5c-0.8-0.6-1.1-1.9-0.5-2.8
		c0.3-0.5,0.7-0.8,1-1.3c4.7-6.4,4.4-15.3-0.7-21.5c-0.4-0.5-0.6-1.2-0.6-1.8c0-0.8,0.5-1.4,1.2-1.6c0.8-0.2,1.3,0.1,1.8,0.7
		c2.9,3.4,4.5,7.3,4.9,11.7C57.3,40.2,57.3,41,57.3,41.4z"/>
	<path d="M50.5,41.7c-0.1,3-0.9,5.7-2.8,8.1c-0.9,1.1-1.7,1.3-2.6,0.6c-0.9-0.7-1-2-0.2-3c1.1-1.4,1.8-2.9,2-4.7
		c0.3-2.6-0.3-4.9-2-6.9c-0.5-0.6-0.7-1.2-0.6-2c0.2-0.7,0.6-1.3,1.3-1.4c0.7-0.2,1.3,0.1,1.7,0.7C49.5,35.7,50.4,38.5,50.5,41.7z"
		/>
</g>
</svg>
