<?xml version="1.0" encoding="utf-8"?>
<!-- Generator: Adobe Illustrator 23.0.6, SVG Export Plug-In . SVG Version: 6.00 Build 0)  -->
<svg version="1.1" id="Capa_1" xmlns="http://www.w3.org/2000/svg" xmlns:xlink="http://www.w3.org/1999/xlink" x="0px" y="0px"
	 viewBox="0 0 82.5 82.6" style="enable-background:new 0 0 82.5 82.6;" xml:space="preserve">
<g id="oBfJsz_1_">
	<g>
		<path d="M41.1,82.6C18.1,82.4-0.2,63.9,0,40.8C0.2,18.2,18.7-0.3,41.8,0c22.9,0.3,39.9,18.7,40.7,39.4c0.4,11.7-3.3,22-11.5,30.5
			C62.5,78.8,51.7,82.5,41.1,82.6z M41.3,76.1c19.4,0,35-15.9,34.9-35.2C76,22,60.5,6.3,41,6.4C21.9,6.5,6.1,22.2,6.4,41.8
			C6.7,60.7,22.1,76.1,41.3,76.1z"/>
		<path d="M36.3,41.3c0,5.8,0,11.6,0,17.3c0,2.5-2.1,4.1-4.5,3.3c-1.3-0.4-2.3-1.6-2.3-3c0-2.4,0-4.7,0-7.1c0-7.2,0-14.5,0-21.7
			c0-2.1,0-4.2,0-6.2c0-1.8,1.1-3.2,2.7-3.4c2-0.3,3.4,0.6,4,2.4c0.1,0.4,0.1,0.7,0.1,1.1C36.3,29.8,36.3,35.5,36.3,41.3z"/>
		<path d="M53,41.3c0,5.8,0,11.6,0,17.4c0,1.5-0.7,2.6-2,3.2c-1.3,0.5-2.7,0.4-3.8-0.7c-0.7-0.7-1-1.5-1-2.5c0-4.2,0-8.5,0-12.7
			c0-7.4,0-14.8,0-22.2c0-1.6,1.2-3,2.7-3.3c1.9-0.3,3.5,0.6,4,2.3c0.1,0.4,0.1,0.8,0.1,1.2C53,29.8,53,35.5,53,41.3z"/>
	</g>
</g>
</svg>
