<?xml version="1.0" encoding="utf-8"?>
<!-- Generator: Adobe Illustrator 24.2.3, SVG Export Plug-In . SVG Version: 6.00 Build 0)  -->
<svg version="1.1" id="Layer_1" xmlns="http://www.w3.org/2000/svg" xmlns:xlink="http://www.w3.org/1999/xlink" x="0px" y="0px"
	 viewBox="0 0 1874.5 509" style="enable-background:new 0 0 1874.5 509;" xml:space="preserve">
<style type="text/css">
	.st0{fill:#FFFFFF;}
</style>
<path class="st0" d="M721.7,307.4c-13.7,0-28.9,2.8-38.4,13.7c-1.8,2.3-3.7,4.6-5.1,7.2c-1.8-3-3.7-6-5.8-8.6
	c-8.8-9.9-23.1-12.3-35.9-12.3c-16.4,0-34.7,5.1-43.1,20.8L594,310h-45.4v139.8h47.7v-76.4c0-14.4,3.9-26.4,20.4-26.4
	c16.2,0,19.7,12,19.7,25.7v77.1H684v-77.3c0-7.9-0.2-16.9,6.5-22.5c3.7-3,8.8-4.4,13.4-4.4c3.2,0,6.5,0.7,9.5,2.1
	c10.6,4.6,10.4,13.7,10.4,23.6v78.5h47.7v-90c0-12-0.5-25.2-7.9-35.4C754.1,311.3,737,307.4,721.7,307.4 M1166.8,408.6
	c-19.2,0-23.1-19.7-23.1-34.9c0-16,3.7-34,23.4-34c21.1,0,23.1,19.7,23.1,35.6C1190.2,391,1186.3,408.6,1166.8,408.6 M1191.8,310
	v11.6c-11.1-10.2-22.5-15.3-38-15.3c-40.5,0-57.4,33.1-57.4,69.7c0,37,18.3,63.2,57.2,63.2c12.5,0,26.9-3.2,36.6-11.6v5.6
	c0,19.2-2.5,30.3-25,30.3c-6.9,0-15-2.3-18.1-9.3c-1.2-2.8-0.9-1.4-1.6-4.4h-47.4c0,36.3,34.3,45.4,64.1,45.4
	c25,0,60.4-4.2,69.4-32.2c2.3-7.4,3-16,3-23.8c0-43.1-0.2-86.1-0.2-129.2H1191.8z M149.6,409.5h-41v-33.6h39.6
	c11.3,0,24.8,2.1,24.8,16.7C173,406.7,160.9,409.5,149.6,409.5 M108.6,309.3h37.3c10.2,0,22,1.4,22,14.1c0,11.3-11.8,13.2-20.8,13.2
	h-38.4V309.3z M193.6,353.9c16.2-4.9,25.7-21.1,25.7-37.3c0-8.8-2.3-17.4-6.7-25c-13.4-22.7-41.4-23.8-64.8-23.8H57v181.9h100.5
	c15.5,0,29.2-0.7,43.3-8.1c16.2-8.3,24.1-23.8,24.1-41.9C224.8,379.4,213.9,360.2,193.6,353.9 M1013.3,416.2
	c-20.1,0-26.8-17.8-26.8-34.9c0-17.8,4.4-37.5,26.2-37.5c22,0,27.1,19.2,27.1,37.3C1039.7,397.9,1033,416.2,1013.3,416.2
	 M1011.7,306.7c-43.5,0-72.9,30.8-72.9,74.1c0,43.7,31.5,72.4,74.5,72.4c41.9,0,73.8-28.5,73.8-71.3
	C1087.1,337.7,1055.6,306.7,1011.7,306.7 M465.3,416.2c-20.1,0-26.8-17.8-26.8-34.9c0-17.8,4.4-37.5,26.2-37.5
	c22,0,27.1,19.2,27.1,37.3C491.7,397.9,485,416.2,465.3,416.2 M463.7,306.7c-43.5,0-72.9,30.8-72.9,74.1c0,43.7,31.5,72.4,74.5,72.4
	c41.9,0,73.8-28.5,73.8-71.3C539.2,337.7,507.7,306.7,463.7,306.7 M307.5,416.2c-20.1,0-26.8-17.8-26.8-34.9
	c0-17.8,4.4-37.5,26.2-37.5c22,0,27.1,19.2,27.1,37.3C333.9,397.9,327.2,416.2,307.5,416.2 M305.9,306.7
	c-43.5,0-72.9,30.8-72.9,74.1c0,43.7,31.5,72.4,74.5,72.4c41.9,0,73.8-28.5,73.8-71.3C381.3,337.7,349.9,306.7,305.9,306.7
	 M875.4,409.3c-4.6,6-12.3,9.7-19.7,9.7c-7.9,0-15-4.6-19.2-11.3c-4.6-7.6-6.3-18.5-6.3-27.3c0-17.4,4.4-39.6,26.2-39.6
	c21.5,0,25.9,23.1,25.9,39.8C882.3,389.6,881.2,402.1,875.4,409.3 M881.4,319c-12-7.9-23.1-12.3-37.7-12.3
	c-27.8,0-49.8,17.4-57.9,43.7c-2.8,9.3-3.9,18.8-3.9,28.5c0,38.4,19.4,74.3,62.5,74.3c14.6,0,27.3-4.2,39.4-13l3.5,9.7h42.1V268.1
	h-47.9V319z M1722.9,135.2c0.9-15.7,11.3-25,27.1-25c15.3,0,28.2,8.6,28.2,24.8L1722.9,135.2z M1826.6,158.3
	c0-46.3-29.4-79.6-77.1-79.6c-42.4,0-75.7,30.1-75.7,73.1c0,46.1,34.7,76.6,79.9,76.6c28.9,0,54.9-12,71.3-36.6l-36.8-19.9
	c-7.4,12.3-20.6,19.7-35,19.7c-17.1,0-30.8-11.1-30.6-28.9h103.9V158.3z M1616.5,80.8c-18,0-31.2,6-43.5,19.2V83.6h-47.4v139.8h47.9
	V150c0-11.1,0.9-22.7,13-27.5c2.8-1.2,6.3-1.8,9.5-1.8c7.6,0,14.8,3.9,18.1,10.9c2.8,5.8,2.5,14.6,2.5,20.8v71.1h47.9v-90.7
	c0-8.1-0.5-16.4-3.2-24.1C1654.5,89.6,1635.7,80.8,1616.5,80.8 M1466.3,67.8h47.4V41.5h-47.4V67.8z M1466.3,223.4h47.4V83.6h-47.4
	V223.4z M1403.2,80.8c-14.6,0-29.2,3.9-39.4,14.8V41.4h-47.9v181.9h47.9v-61.6c0-12.3-2.3-32.4,10.2-39.8c3.7-2.3,8.1-3.7,12.3-3.7
	c18.3,0,20.4,15.5,20.4,29.9v75.2h47.9v-90.3c0-8.3-0.5-16-3.2-23.8C1444,88,1424.3,80.8,1403.2,80.8 M1285.4,121.5
	c-13.2-8.3-29.2-10.2-44.4-12.7l-12.3-2.1c-9.5-1.6-35-1.9-35-15.3c0-10.7,16-13.2,24.1-13.2c20.4,0,33.6,9,46.5,23.8l36.1-27.1
	c-19.4-26.2-50.7-36.1-82.4-36.1c-36.6,0-76.6,15.3-76.6,57.9c0,18.7,8.3,34,24.3,44c13.2,8.1,28.5,11.1,43.7,13.2
	c8.8,1.2,27.8,2.3,35,5.1c5.1,1.8,9.9,5.3,9.9,11.3c0,13.4-20.1,15.5-30.1,15.5c-22.9,0-37-7.9-50.9-25.7
	c-13.2,9.5-26.2,19-39.1,28.9c3.2,4.4,6.7,8.8,10.9,12.5c19.4,18.1,51.4,25.2,77.5,25.2c39.1,0,83.8-15.7,83.8-61.8
	C1306.5,147.7,1300.4,131.3,1285.4,121.5 M1127.6,41.4h-47.9v181.9h47.9V41.4z M995.7,117.1c22,0,27.1,19.2,27.1,37.3
	c0,16.9-6.7,35.2-26.4,35.2c-20.1,0-26.9-17.8-26.9-35C969.5,136.8,973.9,117.1,995.7,117.1 M996.4,226.6
	c41.9,0,73.8-28.5,73.8-71.3c0-44.2-31.5-75.2-75.5-75.2c-43.5,0-72.9,30.8-72.9,74.1C921.8,197.9,953.3,226.6,996.4,226.6
	 M824.9,223.4v-77.3c0-7.9-0.2-16.9,6.5-22.5c3.7-3,8.8-4.4,13.4-4.4c3.2,0,6.5,0.7,9.5,2.1c10.6,4.6,10.4,13.7,10.4,23.6v78.5h47.7
	v-90c0-12-0.5-25.2-7.9-35.4C895,85,877.9,81,862.6,81c-13.7,0-28.9,2.8-38.4,13.7c-1.9,2.3-3.7,4.6-5.1,7.2c-1.9-3-3.7-6-5.8-8.6
	c-8.8-9.9-23.1-12.3-35.9-12.3c-16.4,0-34.7,5.1-43.1,20.8l0.5-18.3h-45.4v139.8h47.7V147c0-14.4,3.9-26.4,20.4-26.4
	c16.2,0,19.7,12,19.7,25.7v77.1H824.9z M603.4,110.2c15.3,0,28.2,8.6,28.2,24.8l-55.3,0.2C577.3,119.5,587.7,110.2,603.4,110.2
	 M607.1,228.5c28.9,0,54.9-12,71.3-36.6L641.6,172c-7.4,12.3-20.6,19.7-35,19.7c-17.1,0-30.8-11.1-30.6-28.9H680v-4.4
	c0-46.3-29.4-79.6-77.1-79.6c-42.4,0-75.7,30.1-75.7,73.1C527.3,197.9,562,228.5,607.1,228.5 M424.9,181c-4.6-7.6-6.3-18.5-6.3-27.3
	c0-17.4,4.4-39.6,26.2-39.6c21.5,0,25.9,23.1,25.9,39.8c0,9-1.2,21.5-6.9,28.7c-4.6,6-12.3,9.7-19.7,9.7
	C436.3,192.4,429.1,187.7,424.9,181 M472.1,213.7l3.5,9.7h42.1V41.5h-47.9v50.9c-12-7.9-23.1-12.3-37.7-12.3
	c-27.8,0-49.8,17.4-57.9,43.8c-2.8,9.3-3.9,18.7-3.9,28.5c0,38.4,19.4,74.3,62.5,74.3C447.4,226.6,460.1,222.5,472.1,213.7
	 M269.7,150c0-11.1,0.9-22.7,13-27.5c2.8-1.2,6.3-1.9,9.5-1.9c7.6,0,14.8,3.9,18.1,10.9c2.8,5.8,2.5,14.6,2.5,20.8v71.1h47.9v-90.7
	c0-8.1-0.5-16.4-3.2-24.1c-6.7-19-25.5-27.8-44.7-27.8c-18.1,0-31.2,6-43.5,19.2V83.6h-47.4v139.8h47.9V150z M210.9,181.7H108.4
	v-37.3h74.8v-38.9h-74.8V81H203V41.5H57v181.9h153.9V181.7z"/>
</svg>
